:version 1.10
:name ASF
:units
  mass 1
  length 1
  angle deg
:documentation
  ASF file generated by Kaydara
:root
  axis xyz
  order  tx ty tz rx ry rz
  position 0 0 0
  orientation 0 0 0
:bonedata
  begin
    id 1
    name RightUpLegDummy
    direction -1 2.30186e-007 8.31532e-007
    length 4.04083
    axis 0 0 0 xyz
  end
  begin
    id 2
    name RightUpLeg
    direction -0.000919234 -0.999985 0.00544864
    length 17.4221
    axis -3.80308 -0.00076134 -0.0523649 xyz
    dof rx ry rz
  end
  begin
    id 3
    name RightLeg
    direction -0.000919271 -0.999984 -0.00555045
    length 17.1239
    axis 4.00314 0.0181274 -0.183583 xyz
    dof rx ry rz
  end
  begin
    id 4
    name RightFoot
    direction -2.57843e-005 -4.04509e-007 1
    length 6.72091
    axis 8.18909e-005 -0.122003 -0.403008 xyz
    dof rx ry rz
  end
  begin
    id 5
    name RightToes
    direction 0.00116825 -0.014069 0.9999
    length 3.85082
    axis 0.000514414 0.540638 -0.356797 xyz
    dof rx ry rz
  end
  begin
    id 6
    name SpineDummy
    direction 0.0168869 0.966876 -0.254689
    length 6.99894
    axis 0 0 0 xyz
  end
  begin
    id 7
    name Spine
    direction -0.0132008 0.999903 0.00446247
    length 11.1999
    axis -0.00148109 0.00725429 0.756411 xyz
    dof rx ry rz
  end
  begin
    id 8
    name Spine1
    direction 0 0 0
    length 0
    axis -0.000934958 0.0245693 1.46543 xyz
    dof rx ry rz
  end
  begin
    id 9
    name HEadDummy
    direction -0.0255732 0.999672 0.00128215
    length 3.43865
    axis -0.000934958 0.0245693 1.46543 xyz
  end
  begin
    id 10
    name HEad
    direction -0.0472656 0.980052 0.19304
    length 5.12695
    axis -0.000934954 0.0245693 1.46543 xyz
    dof rx ry rz
  end
  begin
    id 11
    name LeftShoulder1Dummy
    direction 0.953098 0.301717 -0.023914
    length 3.68488
    axis -0.000934958 0.0245693 1.46543 xyz
  end
  begin
    id 12
    name LeftShoulder1
    direction 0.962466 0.271167 0.0112566
    length 3.13809
    axis -0.000934958 0.0245693 1.46543 xyz
    dof rx ry rz
  end
  begin
    id 13
    name LeftArm
    direction 0.999943 0.00455037 -0.00961766
    length 11.3419
    axis -23.1648 0.685459 1.22814 xyz
    dof rx ry rz
  end
  begin
    id 14
    name LeftForeArm
    direction 0.999332 0.0131969 0.0340885
    length 8.70632
    axis -9.90633 0.618216 0.0826942 xyz
    dof rx ry rz
  end
  begin
    id 15
    name LeftHand
    direction 0.994373 -0.0366703 0.0993905
    length 5.32135
    axis 0.00675269 0.680415 0.445699 xyz
    dof rx ry rz
  end
  begin
    id 16
    name RightShoulderDummy
    direction -0.967298 0.252589 -0.0230903
    length 3.68488
    axis -0.000934958 0.0245693 1.46543 xyz
  end
  begin
    id 17
    name RightShoulder
    direction -0.975062 0.221602 0.0120823
    length 3.13809
    axis 0.216257 0.0246515 1.45863 xyz
    dof rx ry rz
  end
  begin
    id 18
    name RightArm
    direction -0.99886 -0.00851186 -0.0469687
    length 10.3947
    axis -23.196 0.23503 -0.532632 xyz
    dof rx ry rz
  end
  begin
    id 19
    name RightForeArm
    direction -0.99909 0.00114866 0.0426317
    length 8.68355
    axis -9.91764 -0.134943 0.610517 xyz
    dof rx ry rz
  end
  begin
    id 20
    name RightHand
    direction -0.992888 -0.0489538 0.10852
    length 5.28593
    axis -0.00275396 -0.197403 0.246414 xyz
    dof rx ry rz
  end
  begin
    id 21
    name LeftUpLegDummy
    direction 1 -2.30186e-007 -8.31532e-007
    length 4.04083
    axis 0 0 0 xyz
  end
  begin
    id 22
    name LeftUpLeg
    direction -0.000920097 -1 2.79241e-006
    length 17.4221
    axis -3.48782 0.00143434 -0.0532288 xyz
    dof rx ry rz
  end
  begin
    id 23
    name LeftLeg
    direction -0.000920097 -1 2.7912e-006
    length 17.1239
    axis 3.68162 -0.00806512 -0.0529896 xyz
    dof rx ry rz
  end
  begin
    id 24
    name LeftFoot
    direction -2.57845e-005 -3.987e-007 1
    length 6.72091
    axis 3.02372e-005 -0.00147829 -0.214229 xyz
    dof rx ry rz
  end
  begin
    id 25
    name LeftToes
    direction 0.00813577 -0.00488255 0.999955
    length 3.85048
    axis 3.89895e-005 -0.0014783 -0.214229 xyz
    dof rx ry rz
  end
:hierarchy
  begin
    root RightUpLegDummy SpineDummy LeftUpLegDummy
    RightUpLegDummy RightUpLeg
    RightUpLeg RightLeg
    RightLeg RightFoot
    RightFoot RightToes
    SpineDummy Spine
    Spine Spine1
    Spine1 HEadDummy LeftShoulder1Dummy RightShoulderDummy
    HEadDummy HEad
    LeftShoulder1Dummy LeftShoulder1
    LeftShoulder1 LeftArm
    LeftArm LeftForeArm
    LeftForeArm LeftHand
    RightShoulderDummy RightShoulder
    RightShoulder RightArm
    RightArm RightForeArm
    RightForeArm RightHand
    LeftUpLegDummy LeftUpLeg
    LeftUpLeg LeftLeg
    LeftLeg LeftFoot
    LeftFoot LeftToes
  end

:SAMPLES-PER-SECOND 30
:FULLY-SPECIFIED
:DEGREES
38
root  -34.0403 34.9759 5.08201 -170.214 68.5855 -178.484
RightUpLeg  -4.20026 -13.0966 2.80042
RightLeg  -0.599349 1.50768 -0.120914
RightFoot  6.27557 0.0135924 0.296903
RightToes  -22.1506 -0.0937691 -0.19139
Spine  -2.72523 0.263308 -0.33381
Spine1  -5.29747 0.783557 0.095707
HEad  -70.9457 -13.3255 8.37173
LeftShoulder1  -1.94126e-019 -3.10601e-018 -2.51263e-017
LeftArm  -16.5085 6.66714 -63.0342
LeftForeArm  17.7848 -51.4476 -12.8129
LeftHand  -0.257224 2.47072 9.94542
RightShoulder  -4.96962e-017 0 -2.36833e-017
RightArm  -35.5965 -11.4455 64.8047
RightForeArm  30.5701 39.8431 7.4003
RightHand  -0.0292791 -5.27715 -11.6322
LeftUpLeg  -7.16857 7.65979 1.5923
LeftLeg  8.84249 17.1017 1.52015
LeftFoot  3.70088 -0.0357522 1.30708
LeftToes  -20.0621 1.89912e-006 4.45198e-008
39
root  -34.1431 34.9849 4.91362 -170.268 68.9071 -178.309
RightUpLeg  -4.16039 -12.7117 2.49041
RightLeg  -0.410441 1.40089 -0.102773
RightFoot  6.41718 0.0153436 0.290176
RightToes  -22.3637 -0.0950234 -0.19555
Spine  -2.80292 0.243296 -0.394056
Spine1  -5.41872 0.758126 0.0125555
HEad  -70.7125 -13.3309 8.59958
LeftShoulder1  -1.94126e-019 -3.10601e-018 -2.51263e-017
LeftArm  -19.0152 5.50489 -63.195
LeftForeArm  18.8977 -55.173 -14.7726
LeftHand  -0.291628 2.49926 11.4508
RightShoulder  -4.96962e-017 0 -2.36833e-017
RightArm  -36.1713 -10.4363 63.5674
RightForeArm  31.202 46.9394 9.74836
RightHand  -0.0215371 -5.35104 -12.5937
LeftUpLeg  -6.98549 7.78485 1.32779
LeftLeg  8.89784 17.3015 1.55396
LeftFoot  3.44742 -0.0321954 1.24539
LeftToes  -19.2678 1.89912e-006 4.45198e-008
40
root  -34.2337 34.9923 4.73352 -170.286 69.1496 -178.087
RightUpLeg  -4.02609 -12.4614 2.17981
RightLeg  -0.343929 1.39349 -0.0982091
RightFoot  6.69434 0.0160956 0.297241
RightToes  -22.9646 -0.0975605 -0.200221
Spine  -2.84063 0.199821 -0.4364
Spine1  -5.4712 0.680104 -0.0517782
HEad  -70.4394 -13.3539 8.8107
LeftShoulder1  -1.94126e-019 -3.10601e-018 -2.51263e-017
LeftArm  -21.4048 5.09542 -64.03
LeftForeArm  20.5465 -58.895 -17.145
LeftHand  -0.311127 2.47425 12.1453
RightShoulder  -4.96962e-017 0 -2.36833e-017
RightArm  -36.8002 -10.0196 62.8682
RightForeArm  32.2109 54.0195 12.8503
RightHand  -0.0272541 -5.29607 -13.1381
LeftUpLeg  -6.84427 7.76546 1.07241
LeftLeg  9.10755 17.5489 1.63919
LeftFoot  3.17419 -0.028368 1.17784
LeftToes  -18.5624 1.89912e-006 4.45198e-008
41
root  -34.312 34.9944 4.55326 -170.274 69.44 -177.879
RightUpLeg  -3.91225 -12.2287 1.88327
RightLeg  -0.296236 1.40871 -0.098087
RightFoot  6.87305 0.016801 0.304469
RightToes  -23.3157 -0.100618 -0.20357
Spine  -2.8666 0.162849 -0.504231
Spine1  -5.51272 0.603689 -0.171917
HEad  -70.1777 -13.3721 9.14822
LeftShoulder1  -1.94126e-019 -3.10601e-018 -2.51263e-017
LeftArm  -23.5086 5.57825 -65.215
LeftForeArm  20.8167 -62.658 -20.4143
LeftHand  -0.323645 2.36109 12.188
RightShoulder  -4.96962e-017 0 -2.36833e-017
RightArm  -37.6473 -10.1402 62.8564
RightForeArm  34.4336 60.6984 16.9711
RightHand  -0.0726989 -4.87973 -13.0322
LeftUpLeg  -6.70095 7.72301 0.815361
LeftLeg  9.24944 17.903 1.71517
LeftFoot  2.85016 -0.0237294 1.096
LeftToes  -17.8119 1.89912e-006 4.45198e-008
42
root  -34.3815 34.9955 4.3783 -170.204 69.8241 -177.668
RightUpLeg  -3.8628 -11.9418 1.59477
RightLeg  -0.234965 1.50193 -0.102934
RightFoot  7.07304 0.0168009 0.321259
RightToes  -23.7719 -0.103468 -0.206436
Spine  -2.89328 0.119315 -0.562224
Spine1  -5.56439 0.504545 -0.270325
HEad  -69.7999 -13.2652 9.35959
LeftShoulder1  -1.94126e-019 -3.10601e-018 -2.51263e-017
LeftArm  -25.2004 6.86693 -66.5386
LeftForeArm  19.671 -65.9943 -24.5007
LeftHand  -0.305865 2.27072 11.1699
RightShoulder  -4.96962e-017 0 -2.36833e-017
RightArm  -38.0368 -10.6472 63.3254
RightForeArm  38.0808 66.6231 22.549
RightHand  -0.103765 -4.59674 -13.0655
LeftUpLeg  -6.53939 7.75319 0.555963
LeftLeg  9.29311 18.2512 1.76119
LeftFoot  2.57599 -0.0198957 1.02497
LeftToes  -17.1781 1.89912e-006 4.45198e-008
43
root  -34.4484 34.9962 4.21293 -170.042 70.3182 -177.394
RightUpLeg  -3.88176 -11.5538 1.3398
RightLeg  -0.131995 1.60099 -0.106792
RightFoot  7.24899 0.0167414 0.338362
RightToes  -24.1307 -0.105662 -0.209176
Spine  -2.89786 0.0708962 -0.595209
Spine1  -5.57757 0.388922 -0.31643
HEad  -69.2745 -13.027 9.28326
LeftShoulder1  -1.94126e-019 -3.10601e-018 -2.51263e-017
LeftArm  -26.4495 8.77044 -67.8436
LeftForeArm  17.1081 -68.5436 -28.9702
LeftHand  -0.316109 1.72803 9.89227
RightShoulder  -4.96962e-017 0 -2.36833e-017
RightArm  -37.7727 -11.3978 64.0774
RightForeArm  43.4355 71.4063 29.859
RightHand  -0.155486 -4.13302 -13.1676
LeftUpLeg  -6.34544 7.86982 0.311407
LeftLeg  9.22829 18.6285 1.77546
LeftFoot  2.33149 -0.0166088 0.960709
LeftToes  -16.5989 1.89912e-006 4.45198e-008
